<mxfile host="app.diagrams.net" modified="2023-08-01T15:27:33.965Z" agent="Mozilla/5.0 (Windows NT 10.0; Win64; x64) AppleWebKit/537.36 (KHTML, like Gecko) Chrome/115.0.0.0 Safari/537.36 Edg/115.0.1901.183" version="21.6.6" etag="eqnDmzNR7YiWkW04sJtR" type="github">
  <diagram name="Page-1" id="zbDQOkGS-1tEz7wez_52">
    <mxGraphModel>
      <root>
        <mxCell id="0" />
        <mxCell id="1" parent="0" />
      </root>
    </mxGraphModel>
  </diagram>
</mxfile>
